<?xml version="1.0" encoding="utf-8"?>

<!-- The icon can be used freely in both personal and commercial projects with no attribution required, but always appreciated. 
You may NOT sub-license, resell, rent, redistribute or otherwise transfer the icon without express written permission from iconmonstr.com -->

<!DOCTYPE svg PUBLIC "-//W3C//DTD SVG 1.1//EN" "http://www.w3.org/Graphics/SVG/1.1/DTD/svg11.dtd">
<svg version="1.1" xmlns="http://www.w3.org/2000/svg" xmlns:xlink="http://www.w3.org/1999/xlink" x="0px" y="0px"
	 width="512px" height="512px" viewBox="0 0 512 512" enable-background="new 0 0 512 512" xml:space="preserve">
<path style="fill:grey;" id="crosshair-6-icon" d="M462,236h-41.2c-9.078-75.747-69.062-135.722-144.8-144.8V50h-40v41.2
	c-75.747,9.078-135.722,69.062-144.799,144.8H50v40h41.2c9.078,75.747,69.062,135.722,144.8,144.8V462h40v-41.2
	c75.746-9.078,135.722-69.062,144.799-144.8H462V236z M276,380.426v-33.478h-40v33.478c-53.577-8.477-95.943-50.805-104.426-104.426
	h33.478v-40h-33.478c8.476-53.577,50.805-95.944,104.426-104.426v33.478h40v-33.478c53.578,8.477,95.943,50.805,104.426,104.426
	h-33.478v40h33.478C371.95,329.575,329.621,371.943,276,380.426z M281,256c0,13.807-11.193,25-25,25s-25-11.193-25-25
	s11.193-25,25-25S281,242.193,281,256z"/>
</svg>
