<svg width="1000" height="1000" xmlns="http://www.w3.org/2000/svg">
 <g>
  <title>Logo Next</title>
  <path d="m170.507996,35l658.983032,0c74.846985,0 135.508972,60.672997 135.508972,135.509003l0,658.982025c0,74.840942 -60.666992,135.50885 -135.508972,135.50885l-658.983032,0c-74.841003,0 -135.507996,-60.67395 -135.507996,-135.50885l0,-658.982025c-0.105,-74.841003 60.517998,-135.509003 135.425003,-135.509003l0.082993,0z" stroke-width="70" stroke="#000099" fill="white" id="tour"/>
  <path d="m375.483002,354.295013l225.404999,445.397003l100.283997,1l101,-598.39801l-101.870972,0l-75.296997,448.658997l-222.613037,-448.660004l-102.554993,0l-98,598.398163l97.877991,1l75.769012,-447.396088l0,0l0,-0.000031l0,0.000031l0,-0.000031l0,-0.000031z" fill="#000099" id="N"/>
  <path transform="rotate(143.835 741.88 254.39)" id="fleche" d="m661.380005,334.889984l0,-160.999985l161,160.999985l-161,0z" stroke-linecap="null" stroke-linejoin="null" stroke-dasharray="null" stroke-width="70" fill="#000099"/>
 </g>
</svg>