<?xml version="1.0" encoding="UTF-8" standalone="no"?>
<!-- Generator: Adobe Illustrator 12.0.1, SVG Export Plug-In  -->

<svg
   xmlns:dc="http://purl.org/dc/elements/1.1/"
   xmlns:cc="http://creativecommons.org/ns#"
   xmlns:rdf="http://www.w3.org/1999/02/22-rdf-syntax-ns#"
   xmlns:svg="http://www.w3.org/2000/svg"
   xmlns="http://www.w3.org/2000/svg"
   xmlns:sodipodi="http://sodipodi.sourceforge.net/DTD/sodipodi-0.dtd"
   xmlns:inkscape="http://www.inkscape.org/namespaces/inkscape"
   version="1.1"
   width="55"
   height="55"
   viewBox="-0.965 -0.693 55 55"
   enable-background="new -0.965 -0.693 55 55"
   xml:space="preserve"
   id="svg5818"
   inkscape:version="0.48.2 r9819"
   sodipodi:docname="Paris_rer_A_jms.svg"><metadata
   id="metadata5830"><rdf:RDF><cc:Work
       rdf:about=""><dc:format>image/svg+xml</dc:format><dc:type
         rdf:resource="http://purl.org/dc/dcmitype/StillImage" /></cc:Work></rdf:RDF></metadata><sodipodi:namedview
   pagecolor="#ffffff"
   bordercolor="#666666"
   borderopacity="1"
   objecttolerance="10"
   gridtolerance="10"
   guidetolerance="10"
   inkscape:pageopacity="0"
   inkscape:pageshadow="2"
   inkscape:window-width="1935"
   inkscape:window-height="812"
   id="namedview5828"
   showgrid="false"
   inkscape:zoom="4.2909091"
   inkscape:cx="27.5"
   inkscape:cy="27.5"
   inkscape:window-x="0"
   inkscape:window-y="0"
   inkscape:window-maximized="0"
   inkscape:current-layer="svg5818" />
<defs
   id="defs5820" />


<g
   id="g6340"><path
     style="fill:#d35e3c;fill-opacity:1"
     id="path5822"
     d="M53.42,26.705C53.412,11.957,41.455,0.006,26.707,0C11.959-0.002,0.008,11.957,0,26.705  C0.004,41.461,11.951,53.4,26.703,53.416C41.455,53.412,53.416,41.461,53.42,26.705"
     fill="#EC222C" /><path
     id="path5824"
     d="M49.664,26.705c0-12.68-10.285-22.953-22.969-22.969C14.012,3.74,3.723,14.025,3.727,26.693  C3.715,39.393,14.012,49.668,26.695,49.678C39.375,49.678,49.664,39.393,49.664,26.705"
     fill="#FFFFFF" /><path
     style="fill:#d35e3c;fill-opacity:1"
     id="path5826"
     d="M14.336,38.174l6.031-0.006l1.604-4.852h9.449l1.588,4.852l5.568,0.006l-9.041-25.586h-6.119L14.336,38.174   M23.344,29.102l2.648-8.156c0.355-1.092,0.646-2.412,0.646-3.209l0.084-0.008c-0.004,0.869,0.312,2.199,0.648,3.229l2.625,8.135  L23.344,29.102z"
     fill="#EC222C" /></g>
</svg>