<?xml version="1.0" encoding="UTF-8" standalone="no"?>
<!-- Generator: Adobe Illustrator 12.0.1, SVG Export Plug-In  -->

<svg
   xmlns:dc="http://purl.org/dc/elements/1.1/"
   xmlns:cc="http://creativecommons.org/ns#"
   xmlns:rdf="http://www.w3.org/1999/02/22-rdf-syntax-ns#"
   xmlns:svg="http://www.w3.org/2000/svg"
   xmlns="http://www.w3.org/2000/svg"
   xmlns:sodipodi="http://sodipodi.sourceforge.net/DTD/sodipodi-0.dtd"
   xmlns:inkscape="http://www.inkscape.org/namespaces/inkscape"
   version="1.1"
   width="55"
   height="55"
   viewBox="-0.954 -0.698 55 55"
   enable-background="new -0.954 -0.698 55 55"
   xml:space="preserve"
   id="svg6397"
   inkscape:version="0.48.2 r9819"
   sodipodi:docname="Paris_rer_B_jms.svg"><metadata
   id="metadata6409"><rdf:RDF><cc:Work
       rdf:about=""><dc:format>image/svg+xml</dc:format><dc:type
         rdf:resource="http://purl.org/dc/dcmitype/StillImage" /></cc:Work></rdf:RDF></metadata><sodipodi:namedview
   pagecolor="#ffffff"
   bordercolor="#666666"
   borderopacity="1"
   objecttolerance="10"
   gridtolerance="10"
   guidetolerance="10"
   inkscape:pageopacity="0"
   inkscape:pageshadow="2"
   inkscape:window-width="2247"
   inkscape:window-height="1103"
   id="namedview6407"
   showgrid="false"
   inkscape:zoom="4.2909091"
   inkscape:cx="-17.711864"
   inkscape:cy="27.5"
   inkscape:window-x="0"
   inkscape:window-y="0"
   inkscape:window-maximized="0"
   inkscape:current-layer="svg6397" />
<defs
   id="defs6399">
</defs>


<g
   id="g6919"><path
     style="fill:#4e90cc;fill-opacity:1"
     id="path6401"
     d="M0,26.699C0,11.947,11.961,0,26.723,0C41.48,0,53.441,11.947,53.441,26.699  c0,14.748-11.961,26.707-26.719,26.707C11.961,53.406,0,41.447,0,26.699"
     fill="#4E90CD" /><path
     id="path6403"
     d="M3.762,26.699c0-12.684,10.281-22.961,22.961-22.961S49.68,14.016,49.68,26.699S39.402,49.672,26.723,49.672  S3.762,39.383,3.762,26.699"
     fill="#FFFFFF" /><path
     style="fill:#4e90cc;fill-opacity:1"
     id="path6405"
     d="M37.68,31.424c0-3.617-2.199-5.713-4.918-6.084v-0.068c2-0.365,4.078-2.357,4.078-4.996  c0-5.537-5.078-6.477-9.238-6.477h-9.559v25.549h9.156C32.043,39.348,37.68,37.863,37.68,31.424 M31.48,21.035  c0,2.936-3,2.896-4.918,2.896h-2.84V18.07h2.758C28.32,18.07,31.48,17.996,31.48,21.035z M32,31.275c0,3.332-2.32,3.84-4.957,3.84  h-3.32v-7.129h3C28.602,27.986,32,28.096,32,31.275z"
     fill="#4E90CD" /></g>
</svg>