<?xml version="1.0" encoding="utf-8"?>
<!-- Generator: Adobe Illustrator 12.0.1, SVG Export Plug-In  -->
<!DOCTYPE svg PUBLIC "-//W3C//DTD SVG 1.1//EN" "http://www.w3.org/Graphics/SVG/1.1/DTD/svg11.dtd" [
	<!ENTITY ns_flows "http://ns.adobe.com/Flows/1.0/">
	<!ENTITY ns_svg "http://www.w3.org/2000/svg">
	<!ENTITY ns_xlink "http://www.w3.org/1999/xlink">
]>
<svg  version="1.1" xmlns="&ns_svg;" xmlns:xlink="&ns_xlink;" xmlns:a="http://ns.adobe.com/AdobeSVGViewerExtensions/3.0/"
	 width="55" height="55" viewBox="-0.924 -0.649 55 55" enable-background="new -0.924 -0.649 55 55" xml:space="preserve">
<defs>
</defs>
<path fill="#EBC91D" d="M0.044,26.755C0.044,12,12.003,0.044,26.755,0.044c14.74,0,26.701,11.959,26.701,26.707
	C53.46,41.503,41.496,53.457,26.755,53.46C12.003,53.46,0.044,41.5,0.044,26.755"/>
<path fill="none" stroke="#231F20" stroke-width="0.089" d="M0.044,26.755C0.044,12,12.003,0.044,26.755,0.044
	c14.74,0,26.701,11.959,26.701,26.707C53.46,41.503,41.496,53.457,26.755,53.46C12.003,53.46,0.044,41.5,0.044,26.755z"/>
<path fill="#FFFFFF" d="M3.796,26.765C3.789,14.08,14.072,3.785,26.755,3.785c12.68,0,22.969,10.287,22.969,22.975
	c0,12.674-10.281,22.961-22.969,22.957C14.072,49.716,3.789,39.433,3.796,26.765"/>
<path fill="#EBC91D" d="M35.248,38.445l-1.443-4.408c-1.301,0.764-3.145,1.385-5.172,1.385c-4.049,0-7.58-3.133-7.584-8.484
	c-0.004-4.074,1.824-8.746,7.168-8.742c1.646,0,3.492,0.477,5.18,1.393l1.852-4.699c-1.859-0.844-4.18-1.488-7.352-1.496
	c-8.625,0-12.752,6.52-12.752,13.691c0.008,7.568,4.932,13.145,12.752,13.148C30.408,40.228,33.388,39.388,35.248,38.445"/>
<path fill="none" stroke="#231F20" stroke-width="0.089" d="M35.248,38.445l-1.443-4.408c-1.301,0.764-3.145,1.385-5.172,1.385
	c-4.049,0-7.58-3.133-7.584-8.484c-0.004-4.074,1.824-8.746,7.168-8.742c1.646,0,3.492,0.477,5.18,1.393l1.852-4.699
	c-1.859-0.844-4.18-1.488-7.352-1.496c-8.625,0-12.752,6.52-12.752,13.691c0.008,7.568,4.932,13.145,12.752,13.148
	C30.408,40.228,33.388,39.388,35.248,38.445z"/>
</svg>
